inDegrees=yes
name=ik_S55_A08_T01
DataType=double
version=3
OpenSimVersion=4.3-2021-08-27-4bc7ad9
endheader
time	pelvis_tilt	pelvis_list	pelvis_rotation	pelvis_tx	pelvis_ty	pelvis_tz	hip_flexion_r	hip_adduction_r	hip_rotation_r	knee_angle_r	knee_angle_r_beta	ankle_angle_r	subtalar_angle_r	mtp_angle_r	hip_flexion_l	hip_adduction_l	hip_rotation_l	knee_angle_l	knee_angle_l_beta	ankle_angle_l	subtalar_angle_l	mtp_angle_l	lumbar_extension	lumbar_bending	lumbar_rotation	arm_flex_r	arm_add_r	arm_rot_r	elbow_flex_r	pro_sup_r	wrist_flex_r	wrist_dev_r	arm_flex_l	arm_add_l	arm_rot_l	elbow_flex_l	pro_sup_l	wrist_flex_l	wrist_dev_l
20.25999999999966	-5.133362737427611	-1.577691710680595	21.95015193840004	0	0.9399999999999999	0	44.41287294545601	-10.0473027854622	-10.15380963402493	55.22269062642354	0.9638177732413006	0	0	0	44.41287294545601	-10.0473027854622	-10.15380963402493	55.22269062642354	0.9638177732413006	0	0	0	-3.43402095564079	-1.113259812065176	-0.6267958456811477	20.87658423859672	-13.15928616992144	-12.38761814090851	56.61681713963443	128.7983805019503	0	0	39.48793263408119	-20.64621691722713	-5.731873638751432	74.53429250706911	109.3779760181189	0	0
20.27999999999966	-5.136370874975231	-1.584441501812072	21.96257285309684	0	0.9399999999999999	0	44.41299578515274	-10.04726882583326	-10.1537383798868	55.22265892568124	0.9638172199589723	0	0	0	44.41299578515274	-10.04726882583326	-10.1537383798868	55.22265892568124	0.9638172199589723	0	0	0	-3.439936964641812	-1.1173025072689	-0.6394418556472924	20.91102989683229	-13.13973591011806	-12.36169216399447	56.62163020988393	128.8015776892266	0	0	39.61190068340473	-20.73129182690595	-5.662522020891135	74.46353049016528	109.7154964414542	0	0
20.29999999999966	-5.136506540037918	-1.575153175590673	21.94366775401187	0	0.9399999999999999	0	44.41417846673615	-10.04696408522052	-10.15307780648894	55.22235463755438	0.9638119091292838	0	0	0	44.41417846673615	-10.04696408522052	-10.15307780648894	55.22235463755438	0.9638119091292838	0	0	0	-3.438771740685475	-1.107936946412775	-0.6170795831774506	20.94115835746752	-13.19413097020312	-12.37195327287632	56.60150281930739	128.8117748311434	0	0	39.67243244264403	-20.73211874879543	-5.577402376896145	74.3566077518245	109.5055434225294	0	0
20.31999999999966	-5.136987568807497	-1.575217807592801	21.90354150969283	0	0.9399999999999999	0	44.41437197798788	-10.04691029076058	-10.15296505807413	55.22230516131093	0.9638110456059341	0	0	0	44.41437197798788	-10.04691029076058	-10.15296505807413	55.22230516131093	0.9638110456059341	0	0	0	-3.438636291548181	-1.11040687187253	-0.575691124507422	20.97496227843663	-13.19970981206421	-12.40117593379928	56.53125306863133	128.8476850748127	0	0	39.74208291986507	-20.7861051151415	-5.392795530313014	74.26980222655888	108.9890146076077	0	0
20.33999999999966	-5.135430661890383	-1.577408821485605	21.8843319583494	0	0.9399999999999999	0	44.4145415955041	-10.04686296288723	-10.15286597636233	55.22226196975066	0.9638102917709983	0	0	0	44.4145415955041	-10.04686296288723	-10.15286597636233	55.22226196975066	0.9638102917709983	0	0	0	-3.437869109688426	-1.114174682983953	-0.5547450959609332	20.99893461458346	-13.20508800487979	-12.42264780347055	56.51078640921472	128.8546061603186	0	0	39.75872219929702	-20.83355771986933	-5.224813349619946	74.26548000243173	108.7543381065297	0	0
20.35999999999965	-5.134266071445073	-1.577533489775727	21.85815080442415	0	0.9399999999999999	0	44.41664271838935	-10.04635616737371	-10.15173091749482	55.22171631271458	0.963800768259132	0	0	0	44.41664271838935	-10.04635616737371	-10.15173091749482	55.22171631271458	0.963800768259132	0	0	0	-3.441137893610544	-1.112345935622538	-0.528539933588781	21.01512573527427	-13.18469198163909	-12.42161898538268	56.48560888064901	128.8967454053473	0	0	39.73958317276701	-20.93098307834436	-5.099152399420403	74.37228351085392	108.3769471532981	0	0
20.37999999999965	-5.133635319803448	-1.581695814124432	21.83480280832475	0	0.9399999999999999	0	44.41684457237987	-10.04630088170843	-10.15161431794547	55.22166434229259	0.9637998612041547	0	0	0	44.41684457237987	-10.04630088170843	-10.15161431794547	55.22166434229259	0.9637998612041547	0	0	0	-3.442030923513401	-1.117605963756584	-0.5058289674361665	21.02408637450055	-13.173536871428	-12.41967251657526	56.48477892877611	128.9071703436664	0	0	39.65977088879777	-21.03813043652991	-4.985444158145723	74.66749576980199	108.0910654282261	0	0
20.39999999999965	-5.134511136968186	-1.579421827769836	21.82570850707843	0	0.9399999999999999	0	44.41899478182167	-10.04581506230659	-10.15049369686186	55.2210992155861	0.9637899978824355	0	0	0	44.41899478182167	-10.04581506230659	-10.15049369686186	55.2210992155861	0.9637899978824355	0	0	0	-3.446902579908582	-1.111575947861907	-0.4979909121654903	21.03461675566101	-13.17344553934851	-12.39978359054666	56.50200198918702	128.8902027833583	0	0	39.67834541429745	-21.02503472865625	-4.996494044346424	74.91408112288569	107.8639361791517	0	0
20.41999999999965	-5.129014098688551	-1.583192954223987	21.82985615142561	0	0.9399999999999999	0	44.41922377783309	-10.0457529755725	-10.1503621866382	55.22104003128266	0.9637889649214749	0	0	0	44.41922377783309	-10.0457529755725	-10.1503621866382	55.22104003128266	0.9637889649214749	0	0	0	-3.443998860474033	-1.116221712709853	-0.5038608455619891	21.0237221744139	-13.18782992898291	-12.40916553706846	56.48267061771944	128.9315919749619	0	0	39.50384688878617	-21.19737302460018	-4.957171023950101	75.36153308960255	107.6362608554178	0	0
20.43999999999965	-5.131047696039198	-1.592475988285679	21.87357451466657	0	0.9399999999999999	0	44.4193961265939	-10.04570635384244	-10.15026333639946	55.22099544036857	0.9637881866632075	0	0	0	44.4193961265939	-10.04570635384244	-10.15026333639946	55.22099544036857	0.9637881866632075	0	0	0	-3.450930146346505	-1.121007082018723	-0.5424992589113488	21.03934691246834	-13.1718753986208	-12.42028866963062	56.48425869482164	128.9274081990148	0	0	39.34316368403558	-21.40438501414996	-4.969893166376397	76.03537789415904	107.8517294911143	0	0
20.45999999999965	-5.13237460370516	-1.604848194876541	21.91872964857244	0	0.9399999999999999	0	44.41955444818218	-10.04566406505596	-10.15017328235047	55.22095400967365	0.9637874635611698	0	0	0	44.41955444818218	-10.04566406505596	-10.15017328235047	55.22095400967365	0.9637874635611698	0	0	0	-3.458473057009793	-1.128928233924283	-0.5812392042642013	21.03921045040829	-13.17013715826228	-12.42448906758787	56.48778054594845	128.884849638461	0	0	39.11108301320451	-21.5957019966493	-4.955168584523811	76.9927021911973	108.4828024074826	0	0
